<?xml version="1.0" standalone="no"?>
<!DOCTYPE svg PUBLIC "-//W3C//DTD SVG 20010904//EN"
 "http://www.w3.org/TR/2001/REC-SVG-20010904/DTD/svg10.dtd">
<svg version="1.0" xmlns="http://www.w3.org/2000/svg"
 width="459.000000pt" height="442.000000pt" viewBox="0 0 459.000000 442.000000"
 preserveAspectRatio="xMidYMid meet">

<g transform="translate(0.000000,442.000000) scale(0.100000,-0.100000)"
fill="#000000" stroke="none">
<path d="M761 2232 c-39 -121 -71 -224 -71 -231 0 -6 17 -11 40 -11 l39 0 19
63 20 62 89 3 89 3 19 -63 c18 -56 23 -63 48 -66 59 -7 59 -6 -18 230 l-73
223 -65 3 -66 3 -70 -219z m169 69 c16 -54 30 -103 30 -110 0 -7 -23 -11 -65
-11 -36 0 -65 3 -65 6 0 10 63 214 66 214 2 0 17 -44 34 -99z"/>
<path d="M1472 2438 c-17 -17 -15 -53 3 -68 36 -30 87 18 64 62 -11 20 -49 24
-67 6z"/>
<path d="M2880 2215 l0 -225 40 0 40 0 0 95 c0 65 5 105 15 124 24 48 72 55
110 16 23 -23 25 -31 25 -130 l0 -105 40 0 40 0 0 103 c0 56 -5 119 -10 139
-26 93 -142 119 -202 44 -17 -20 -18 -18 -18 72 l0 92 -40 0 -40 0 0 -225z"/>
<path d="M1974 2373 c-6 -24 -17 -42 -31 -48 -16 -7 -23 -18 -23 -37 0 -23 4
-28 25 -28 l25 0 0 -115 c0 -141 8 -155 95 -155 54 0 55 0 55 29 0 27 -3 30
-37 33 l-38 3 -3 103 -3 102 41 0 c38 0 40 2 40 30 0 28 -2 30 -40 30 l-40 0
0 45 c0 43 -1 45 -28 45 -25 0 -30 -5 -38 -37z"/>
<path d="M3614 2373 c-6 -24 -17 -42 -31 -48 -16 -7 -23 -18 -23 -37 0 -23 4
-28 25 -28 l25 0 0 -115 c0 -141 8 -155 95 -155 54 0 55 0 55 29 0 27 -3 30
-37 33 l-38 3 -3 103 -3 102 41 0 c38 0 40 2 40 30 0 28 -2 30 -40 30 l-40 0
0 45 c0 43 -1 45 -28 45 -25 0 -30 -5 -38 -37z"/>
<path d="M1082 2308 c3 -7 29 -82 59 -165 l54 -153 56 0 c53 0 58 2 67 28 62
170 102 286 102 293 0 5 -18 9 -39 9 l-39 0 -44 -132 -44 -132 -46 130 -45
129 -43 3 c-32 2 -41 0 -38 -10z"/>
<path d="M1460 2155 l0 -165 40 0 40 0 0 165 0 165 -40 0 -40 0 0 -165z"/>
<path d="M1651 2308 c-78 -41 -94 -226 -26 -294 44 -44 123 -44 168 1 l25 25
6 -25 c5 -21 12 -25 41 -25 l35 0 0 165 0 165 -40 0 c-38 0 -40 -1 -40 -32 l0
-32 -29 28 c-34 33 -102 44 -140 24z m129 -68 c45 -24 45 -156 0 -180 -76 -41
-140 35 -111 131 16 52 65 74 111 49z"/>
<path d="M2231 2303 c-55 -29 -75 -64 -79 -141 -4 -87 16 -128 78 -160 36 -19
55 -22 99 -18 93 9 144 66 145 165 1 63 -21 110 -66 144 -39 29 -132 34 -177
10z m140 -69 c38 -34 32 -139 -9 -170 -28 -22 -80 -17 -107 11 -20 19 -25 34
-25 75 0 59 12 87 43 100 28 12 76 4 98 -16z"/>
<path d="M2605 2306 c-62 -28 -95 -85 -95 -164 0 -65 27 -112 80 -139 81 -42
172 -22 217 46 31 47 29 61 -8 61 -22 0 -40 -9 -60 -31 -26 -28 -34 -31 -72
-26 -55 8 -77 35 -77 97 0 62 22 89 77 97 38 5 46 2 72 -26 20 -22 38 -31 60
-31 40 0 41 26 4 71 -47 56 -131 75 -198 45z"/>
<path d="M3291 2308 c-78 -41 -94 -226 -26 -294 44 -44 123 -44 168 1 l25 25
6 -25 c5 -21 12 -25 41 -25 l35 0 0 165 0 165 -40 0 c-38 0 -40 -1 -40 -32 l0
-32 -29 28 c-34 33 -102 44 -140 24z m129 -68 c28 -15 43 -81 30 -130 -11 -42
-33 -60 -72 -60 -60 0 -91 66 -69 141 16 52 65 74 111 49z"/>
<path d="M3817 2074 c-4 -4 -7 -20 -7 -36 0 -21 7 -32 25 -40 34 -15 57 5 53
46 -3 26 -8 31 -33 34 -17 2 -34 0 -38 -4z"/>
</g>
</svg>
